<svg xmlns="http://www.w3.org/2000/svg" viewBox="0 0 256 256">
  <defs>
    <linearGradient id="bg" x1="0" x2="1" y1="0" y2="1">
      <stop offset="0%" stop-color="#182131"/>
      <stop offset="100%" stop-color="#0b1018"/>
    </linearGradient>
    <linearGradient id="glow" x1="0" x2="1" y1="0" y2="1">
      <stop offset="0%" stop-color="#f5c978"/>
      <stop offset="100%" stop-color="#59d4e2"/>
    </linearGradient>
  </defs>
  <rect x="16" y="20" width="224" height="216" rx="28" fill="url(#bg)"/>
  <rect x="28" y="36" width="200" height="30" rx="15" fill="#222d3f" opacity="0.95"/>
  <circle cx="52" cy="51" r="6" fill="#ff7aa2"/>
  <circle cx="72" cy="51" r="6" fill="#f5c978"/>
  <circle cx="92" cy="51" r="6" fill="#59d4e2"/>
  <rect x="32" y="78" width="92" height="134" rx="18" fill="#111926" stroke="#2e3f59" stroke-width="4"/>
  <rect x="132" y="78" width="92" height="62" rx="18" fill="#111926" stroke="#2e3f59" stroke-width="4"/>
  <rect x="132" y="150" width="92" height="62" rx="18" fill="#111926" stroke="#2e3f59" stroke-width="4"/>
  <path d="M56 120l22 18-22 18" fill="none" stroke="url(#glow)" stroke-linecap="round" stroke-linejoin="round" stroke-width="10"/>
  <path d="M84 174h24" fill="none" stroke="#eef3ff" stroke-linecap="round" stroke-width="10"/>
  <path d="M152 104h50" fill="none" stroke="#59d4e2" stroke-linecap="round" stroke-width="8"/>
  <path d="M152 122h32" fill="none" stroke="#eef3ff" opacity="0.7" stroke-linecap="round" stroke-width="8"/>
  <path d="M152 176h50" fill="none" stroke="#f5c978" stroke-linecap="round" stroke-width="8"/>
  <path d="M152 194h28" fill="none" stroke="#eef3ff" opacity="0.7" stroke-linecap="round" stroke-width="8"/>
</svg>